<svg width="1920" height="1080" viewBox="0 0 1920 1080" xmlns="http://www.w3.org/2000/svg"><path d="M1920,1080C1614.3333333333333,1148.8333333333333,306.3333333333333,1101.5,0,1080C-306.3333333333333,1058.5,54.83333333333333,1020.3333333333334,82,951C109.16666666666667,881.6666666666666,135.16666666666666,669.8333333333334,163,664C190.83333333333334,658.1666666666666,220.83333333333334,910.6666666666666,249,916C277.1666666666667,921.3333333333334,304.6666666666667,709,332,696C359.3333333333333,683,385.5,820.8333333333334,413,838C440.5,855.1666666666666,469,765.6666666666666,497,799C525,832.3333333333334,553,1010.6666666666666,581,1038C609,1065.3333333333333,637.3333333333334,988.3333333333334,665,963C692.6666666666666,937.6666666666666,719,909.1666666666666,747,886C775,862.8333333333334,805,853,833,824C861,795,887.1666666666666,705.5,915,712C942.8333333333334,718.5,972.1666666666666,850.5,1000,863C1027.8333333333333,875.5,1054.5,753.5,1082,787C1109.5,820.5,1137.3333333333333,1052.3333333333333,1165,1064C1192.6666666666667,1075.6666666666667,1219.8333333333333,897.8333333333334,1248,857C1276.1666666666667,816.1666666666666,1305.6666666666667,809.1666666666666,1334,819C1362.3333333333333,828.8333333333334,1390.6666666666667,897,1418,916C1445.3333333333333,935,1470.6666666666667,961.8333333333334,1498,933C1525.3333333333333,904.1666666666666,1554.1666666666667,766.6666666666666,1582,743C1609.8333333333333,719.3333333333334,1636.6666666666667,804,1665,791C1693.3333333333333,778,1723.8333333333333,685.6666666666666,1752,665C1780.1666666666667,644.3333333333334,1806,597.8333333333334,1834,667C1862,736.1666666666666,2225.6666666666665,1011.1666666666666,1920,1080C1614.3333333333333,1148.8333333333333,306.3333333333333,1101.5,0,1080" fill="#3b3b3b"/></svg>